{
.appVersion = "1075";
copyright = "Copyright 2016 The Rounded M+ Project Authors.";
customParameters = (
{
name = vendorID;
value = "M+  ";
},
{
name = panose;
value = (
2,
11,
8,
2,
2,
2,
3,
2,
2,
7
);
},
{
name = unicodeRanges;
value = (
0,
1,
2,
3,
4,
5,
6,
7,
9,
11,
24,
29,
30,
31,
32,
33,
35,
36,
37,
38,
39,
40,
42,
43,
44,
45,
46,
47,
48,
49,
50,
54,
57,
59,
61,
62,
65,
68,
89
);
},
{
name = codePageRanges;
value = (
1252,
1250,
1251,
1253,
1254,
1255,
1257,
1258,
932,
950,
869,
866,
865,
863,
862,
861,
860,
857,
855,
852,
775,
737,
850,
437
);
},
{
name = glyphOrder;
value = (
.notdef,
space
);
}
);
date = "2015-05-28 17:05:23 +0000";
familyName = "Yaku Han RPs";
fontMaster = (
{
ascender = 860;
capHeight = 700;
customParameters = (
{
name = typoAscender;
value = 860;
},
{
name = typoDescender;
value = -140;
},
{
name = typoLineGap;
value = 90;
},
{
name = winAscent;
value = 1075;
},
{
name = winDescent;
value = 320;
},
{
name = hheaAscender;
value = 1075;
},
{
name = hheaDescender;
value = -320;
},
{
name = underlinePosition;
value = -150;
}
);
descender = -140;
id = "A69F2AA0-AD0D-4CE1-B2F1-3CF3C38B68E2";
weight = Bold;
weightValue = 800;
widthValue = 5;
xHeight = 500;
}
);
glyphs = (
{
glyphname = ellipsis;
lastChange = "2017-12-21 08:36:20 +0000";
layers = (
{
layerId = "A69F2AA0-AD0D-4CE1-B2F1-3CF3C38B68E2";
paths = (
{
closed = 1;
nodes = (
"902 265 OFFCURVE",
"928 291 OFFCURVE",
"928 322 CURVE SMOOTH",
"928 398 LINE SMOOTH",
"928 429 OFFCURVE",
"902 455 OFFCURVE",
"871 455 CURVE SMOOTH",
"795 455 LINE SMOOTH",
"764 455 OFFCURVE",
"738 429 OFFCURVE",
"738 398 CURVE SMOOTH",
"738 322 LINE SMOOTH",
"738 291 OFFCURVE",
"764 265 OFFCURVE",
"795 265 CURVE SMOOTH",
"871 265 LINE SMOOTH"
);
},
{
closed = 1;
nodes = (
"569 265 OFFCURVE",
"595 291 OFFCURVE",
"595 322 CURVE SMOOTH",
"595 398 LINE SMOOTH",
"595 429 OFFCURVE",
"569 455 OFFCURVE",
"538 455 CURVE SMOOTH",
"462 455 LINE SMOOTH",
"431 455 OFFCURVE",
"405 429 OFFCURVE",
"405 398 CURVE SMOOTH",
"405 322 LINE SMOOTH",
"405 291 OFFCURVE",
"431 265 OFFCURVE",
"462 265 CURVE SMOOTH",
"538 265 LINE SMOOTH"
);
},
{
closed = 1;
nodes = (
"236 265 OFFCURVE",
"262 291 OFFCURVE",
"262 322 CURVE SMOOTH",
"262 398 LINE SMOOTH",
"262 429 OFFCURVE",
"236 455 OFFCURVE",
"205 455 CURVE SMOOTH",
"129 455 LINE SMOOTH",
"98 455 OFFCURVE",
"72 429 OFFCURVE",
"72 398 CURVE SMOOTH",
"72 322 LINE SMOOTH",
"72 291 OFFCURVE",
"98 265 OFFCURVE",
"129 265 CURVE SMOOTH",
"205 265 LINE SMOOTH"
);
}
);
vertWidth = 1000;
width = 1000;
}
);
note = ellipsis;
unicode = 2026;
},
{
glyphname = anglebracketleft;
lastChange = "2017-12-21 08:38:26 +0000";
layers = (
{
layerId = "A69F2AA0-AD0D-4CE1-B2F1-3CF3C38B68E2";
paths = (
{
closed = 1;
nodes = (
"440 -101 OFFCURVE",
"468 -118 OFFCURVE",
"506 -118 CURVE SMOOTH",
"556 -118 LINE SMOOTH",
"581 -118 OFFCURVE",
"597 -91 OFFCURVE",
"585 -68 CURVE SMOOTH",
"353 353 LINE",
"350 358 OFFCURVE",
"350 362 OFFCURVE",
"353 367 CURVE",
"585 788 LINE SMOOTH",
"597 811 OFFCURVE",
"581 838 OFFCURVE",
"556 838 CURVE SMOOTH",
"506 838 LINE SMOOTH",
"468 838 OFFCURVE",
"440 821 OFFCURVE",
"422 788 CURVE SMOOTH",
"213 410 LINE SMOOTH",
"195 377 OFFCURVE",
"195 343 OFFCURVE",
"213 310 CURVE SMOOTH",
"422 -68 LINE SMOOTH"
);
}
);
vertWidth = 1000;
width = 619;
}
);
note = uni3008;
unicode = 3008;
},
{
glyphname = anglebracketright;
lastChange = "2017-12-21 08:38:44 +0000";
layers = (
{
layerId = "A69F2AA0-AD0D-4CE1-B2F1-3CF3C38B68E2";
paths = (
{
closed = 1;
nodes = (
"38 838 OFFCURVE",
"22 811 OFFCURVE",
"34 788 CURVE SMOOTH",
"266 367 LINE",
"269 362 OFFCURVE",
"269 358 OFFCURVE",
"266 353 CURVE",
"34 -68 LINE SMOOTH",
"22 -91 OFFCURVE",
"38 -118 OFFCURVE",
"63 -118 CURVE SMOOTH",
"113 -118 LINE SMOOTH",
"151 -118 OFFCURVE",
"179 -101 OFFCURVE",
"197 -68 CURVE SMOOTH",
"406 310 LINE SMOOTH",
"424 343 OFFCURVE",
"424 377 OFFCURVE",
"406 410 CURVE SMOOTH",
"197 788 LINE SMOOTH",
"179 821 OFFCURVE",
"151 838 OFFCURVE",
"113 838 CURVE SMOOTH",
"63 838 LINE SMOOTH"
);
}
);
vertWidth = 1000;
width = 619;
}
);
note = uni3009;
unicode = 3009;
},
{
glyphname = blacklenticularbracketleft;
lastChange = "2017-12-21 08:38:26 +0000";
layers = (
{
layerId = "A69F2AA0-AD0D-4CE1-B2F1-3CF3C38B68E2";
paths = (
{
closed = 1;
nodes = (
"493 -118 OFFCURVE",
"503 -93 OFFCURVE",
"490 -77 CURVE SMOOTH",
"386 43 OFFCURVE",
"328 200 OFFCURVE",
"328 360 CURVE SMOOTH",
"328 520 OFFCURVE",
"386 677 OFFCURVE",
"490 797 CURVE SMOOTH",
"503 813 OFFCURVE",
"493 838 OFFCURVE",
"472 838 CURVE SMOOTH",
"257 838 LINE SMOOTH",
"226 838 OFFCURVE",
"200 812 OFFCURVE",
"200 781 CURVE SMOOTH",
"200 -61 LINE SMOOTH",
"200 -92 OFFCURVE",
"226 -118 OFFCURVE",
"257 -118 CURVE SMOOTH",
"472 -118 LINE SMOOTH"
);
}
);
vertWidth = 1000;
width = 526;
}
);
note = uni3010;
unicode = 3010;
},
{
glyphname = blacklenticularbracketright;
lastChange = "2017-12-21 08:38:44 +0000";
layers = (
{
layerId = "A69F2AA0-AD0D-4CE1-B2F1-3CF3C38B68E2";
paths = (
{
closed = 1;
nodes = (
"300 -118 OFFCURVE",
"326 -92 OFFCURVE",
"326 -61 CURVE SMOOTH",
"326 781 LINE SMOOTH",
"326 812 OFFCURVE",
"300 838 OFFCURVE",
"269 838 CURVE SMOOTH",
"54 838 LINE SMOOTH",
"33 838 OFFCURVE",
"23 813 OFFCURVE",
"36 797 CURVE SMOOTH",
"140 677 OFFCURVE",
"198 520 OFFCURVE",
"198 360 CURVE SMOOTH",
"198 200 OFFCURVE",
"140 43 OFFCURVE",
"36 -77 CURVE SMOOTH",
"23 -93 OFFCURVE",
"33 -118 OFFCURVE",
"54 -118 CURVE SMOOTH",
"269 -118 LINE SMOOTH"
);
}
);
vertWidth = 1000;
width = 526;
}
);
note = uni3011;
unicode = 3011;
},
{
glyphname = braceleft.full;
lastChange = "2017-12-21 08:38:26 +0000";
layers = (
{
layerId = "A69F2AA0-AD0D-4CE1-B2F1-3CF3C38B68E2";
paths = (
{
closed = 1;
nodes = (
"475 393 OFFCURVE",
"505 438 OFFCURVE",
"505 529 CURVE SMOOTH",
"505 629 LINE SMOOTH",
"505 714 OFFCURVE",
"516 724 OFFCURVE",
"597 724 CURVE SMOOTH",
"657 724 LINE SMOOTH",
"688 724 OFFCURVE",
"714 750 OFFCURVE",
"714 781 CURVE SMOOTH",
"714 812 OFFCURVE",
"688 838 OFFCURVE",
"657 838 CURVE SMOOTH",
"520 838 LINE SMOOTH",
"407 838 OFFCURVE",
"359 791 OFFCURVE",
"359 672 CURVE SMOOTH",
"359 534 LINE SMOOTH",
"359 451 OFFCURVE",
"334 421 OFFCURVE",
"270 421 CURVE SMOOTH",
"257 421 LINE SMOOTH",
"226 421 OFFCURVE",
"200 395 OFFCURVE",
"200 364 CURVE SMOOTH",
"200 356 LINE SMOOTH",
"200 325 OFFCURVE",
"226 299 OFFCURVE",
"257 299 CURVE SMOOTH",
"270 299 LINE SMOOTH",
"334 299 OFFCURVE",
"359 269 OFFCURVE",
"359 186 CURVE SMOOTH",
"359 48 LINE SMOOTH",
"359 -71 OFFCURVE",
"407 -118 OFFCURVE",
"520 -118 CURVE SMOOTH",
"657 -118 LINE SMOOTH",
"688 -118 OFFCURVE",
"714 -92 OFFCURVE",
"714 -61 CURVE SMOOTH",
"714 -30 OFFCURVE",
"688 -4 OFFCURVE",
"657 -4 CURVE SMOOTH",
"597 -4 LINE SMOOTH",
"516 -4 OFFCURVE",
"505 6 OFFCURVE",
"505 91 CURVE SMOOTH",
"505 191 LINE SMOOTH",
"505 282 OFFCURVE",
"475 327 OFFCURVE",
"396 358 CURVE",
"395 358 OFFCURVE",
"394 359 OFFCURVE",
"394 360 CURVE SMOOTH",
"394 361 OFFCURVE",
"395 362 OFFCURVE",
"396 362 CURVE"
);
}
);
vertWidth = 1000;
width = 744;
}
);
note = uniFF5B;
unicode = FF5B;
},
{
glyphname = braceright.full;
lastChange = "2017-12-21 08:38:44 +0000";
layers = (
{
layerId = "A69F2AA0-AD0D-4CE1-B2F1-3CF3C38B68E2";
paths = (
{
closed = 1;
nodes = (
"269 327 OFFCURVE",
"239 282 OFFCURVE",
"239 191 CURVE SMOOTH",
"239 91 LINE SMOOTH",
"239 6 OFFCURVE",
"228 -4 OFFCURVE",
"147 -4 CURVE SMOOTH",
"87 -4 LINE SMOOTH",
"56 -4 OFFCURVE",
"30 -30 OFFCURVE",
"30 -61 CURVE SMOOTH",
"30 -92 OFFCURVE",
"56 -118 OFFCURVE",
"87 -118 CURVE SMOOTH",
"224 -118 LINE SMOOTH",
"337 -118 OFFCURVE",
"385 -71 OFFCURVE",
"385 48 CURVE SMOOTH",
"385 186 LINE SMOOTH",
"385 269 OFFCURVE",
"410 299 OFFCURVE",
"474 299 CURVE SMOOTH",
"487 299 LINE SMOOTH",
"518 299 OFFCURVE",
"544 325 OFFCURVE",
"544 356 CURVE SMOOTH",
"544 364 LINE SMOOTH",
"544 395 OFFCURVE",
"518 421 OFFCURVE",
"487 421 CURVE SMOOTH",
"474 421 LINE SMOOTH",
"410 421 OFFCURVE",
"385 451 OFFCURVE",
"385 534 CURVE SMOOTH",
"385 672 LINE SMOOTH",
"385 791 OFFCURVE",
"337 838 OFFCURVE",
"224 838 CURVE SMOOTH",
"87 838 LINE SMOOTH",
"56 838 OFFCURVE",
"30 812 OFFCURVE",
"30 781 CURVE SMOOTH",
"30 750 OFFCURVE",
"56 724 OFFCURVE",
"87 724 CURVE SMOOTH",
"147 724 LINE SMOOTH",
"228 724 OFFCURVE",
"239 714 OFFCURVE",
"239 629 CURVE SMOOTH",
"239 529 LINE SMOOTH",
"239 438 OFFCURVE",
"269 393 OFFCURVE",
"348 362 CURVE",
"349 362 OFFCURVE",
"350 361 OFFCURVE",
"350 360 CURVE SMOOTH",
"350 359 OFFCURVE",
"349 358 OFFCURVE",
"348 358 CURVE"
);
}
);
vertWidth = 1000;
width = 744;
}
);
note = uniFF5D;
unicode = FF5D;
},
{
glyphname = cornerbracketleft;
lastChange = "2017-12-21 08:38:26 +0000";
layers = (
{
layerId = "A69F2AA0-AD0D-4CE1-B2F1-3CF3C38B68E2";
paths = (
{
closed = 1;
nodes = (
"328 62 OFFCURVE",
"353 87 OFFCURVE",
"353 118 CURVE SMOOTH",
"353 691 LINE SMOOTH",
"353 697 OFFCURVE",
"356 700 OFFCURVE",
"362 700 CURVE SMOOTH",
"577 700 LINE SMOOTH",
"608 700 OFFCURVE",
"633 726 OFFCURVE",
"633 757 CURVE SMOOTH",
"633 772 LINE SMOOTH",
"633 803 OFFCURVE",
"608 828 OFFCURVE",
"577 828 CURVE SMOOTH",
"257 828 LINE SMOOTH",
"226 828 OFFCURVE",
"200 803 OFFCURVE",
"200 772 CURVE SMOOTH",
"200 118 LINE SMOOTH",
"200 87 OFFCURVE",
"226 62 OFFCURVE",
"257 62 CURVE SMOOTH",
"297 62 LINE SMOOTH"
);
}
);
vertWidth = 1000;
width = 663;
}
);
note = uni300C;
unicode = 300C;
},
{
glyphname = cornerbracketright;
lastChange = "2017-12-21 08:38:44 +0000";
layers = (
{
layerId = "A69F2AA0-AD0D-4CE1-B2F1-3CF3C38B68E2";
paths = (
{
closed = 1;
nodes = (
"437 -108 OFFCURVE",
"463 -83 OFFCURVE",
"463 -52 CURVE SMOOTH",
"463 602 LINE SMOOTH",
"463 633 OFFCURVE",
"437 658 OFFCURVE",
"406 658 CURVE SMOOTH",
"366 658 LINE SMOOTH",
"335 658 OFFCURVE",
"310 633 OFFCURVE",
"310 602 CURVE SMOOTH",
"310 29 LINE SMOOTH",
"310 23 OFFCURVE",
"307 20 OFFCURVE",
"301 20 CURVE SMOOTH",
"86 20 LINE SMOOTH",
"55 20 OFFCURVE",
"30 -6 OFFCURVE",
"30 -37 CURVE SMOOTH",
"30 -52 LINE SMOOTH",
"30 -83 OFFCURVE",
"55 -108 OFFCURVE",
"86 -108 CURVE SMOOTH",
"406 -108 LINE SMOOTH"
);
}
);
vertWidth = 1000;
width = 663;
}
);
note = uni300D;
unicode = 300D;
},
{
glyphname = dblanglebracketleft;
lastChange = "2017-12-21 08:38:26 +0000";
layers = (
{
layerId = "A69F2AA0-AD0D-4CE1-B2F1-3CF3C38B68E2";
paths = (
{
closed = 1;
nodes = (
"812 811 OFFCURVE",
"796 838 OFFCURVE",
"771 838 CURVE SMOOTH",
"729 838 LINE SMOOTH",
"691 838 OFFCURVE",
"663 821 OFFCURVE",
"645 788 CURVE SMOOTH",
"436 410 LINE SMOOTH",
"418 377 OFFCURVE",
"418 343 OFFCURVE",
"436 310 CURVE SMOOTH",
"645 -68 LINE SMOOTH",
"663 -101 OFFCURVE",
"691 -118 OFFCURVE",
"729 -118 CURVE SMOOTH",
"771 -118 LINE SMOOTH",
"796 -118 OFFCURVE",
"812 -91 OFFCURVE",
"800 -68 CURVE SMOOTH",
"568 353 LINE",
"565 358 OFFCURVE",
"565 362 OFFCURVE",
"568 367 CURVE",
"800 788 LINE SMOOTH"
);
},
{
closed = 1;
nodes = (
"440 -101 OFFCURVE",
"468 -118 OFFCURVE",
"506 -118 CURVE SMOOTH",
"547 -118 LINE SMOOTH",
"572 -118 OFFCURVE",
"589 -89 OFFCURVE",
"577 -68 CURVE SMOOTH",
"345 353 LINE",
"342 358 OFFCURVE",
"342 362 OFFCURVE",
"345 367 CURVE",
"577 788 LINE SMOOTH",
"589 809 OFFCURVE",
"572 838 OFFCURVE",
"547 838 CURVE SMOOTH",
"506 838 LINE SMOOTH",
"468 838 OFFCURVE",
"440 821 OFFCURVE",
"422 788 CURVE SMOOTH",
"213 410 LINE SMOOTH",
"195 377 OFFCURVE",
"195 343 OFFCURVE",
"213 310 CURVE SMOOTH",
"422 -68 LINE SMOOTH"
);
}
);
vertWidth = 1000;
width = 834;
}
);
note = uni300A;
unicode = 300A;
},
{
glyphname = dblanglebracketright;
lastChange = "2017-12-21 08:38:44 +0000";
layers = (
{
layerId = "A69F2AA0-AD0D-4CE1-B2F1-3CF3C38B68E2";
paths = (
{
closed = 1;
nodes = (
"22 -91 OFFCURVE",
"38 -118 OFFCURVE",
"63 -118 CURVE SMOOTH",
"105 -118 LINE SMOOTH",
"143 -118 OFFCURVE",
"171 -101 OFFCURVE",
"189 -68 CURVE SMOOTH",
"398 310 LINE SMOOTH",
"416 343 OFFCURVE",
"416 377 OFFCURVE",
"398 410 CURVE SMOOTH",
"189 788 LINE SMOOTH",
"171 821 OFFCURVE",
"143 838 OFFCURVE",
"105 838 CURVE SMOOTH",
"63 838 LINE SMOOTH",
"38 838 OFFCURVE",
"22 811 OFFCURVE",
"34 788 CURVE SMOOTH",
"266 367 LINE",
"269 362 OFFCURVE",
"269 358 OFFCURVE",
"266 353 CURVE",
"34 -68 LINE SMOOTH"
);
},
{
closed = 1;
nodes = (
"262 838 OFFCURVE",
"245 809 OFFCURVE",
"257 788 CURVE SMOOTH",
"489 367 LINE",
"492 362 OFFCURVE",
"492 358 OFFCURVE",
"489 353 CURVE",
"257 -68 LINE SMOOTH",
"245 -89 OFFCURVE",
"262 -118 OFFCURVE",
"287 -118 CURVE SMOOTH",
"328 -118 LINE SMOOTH",
"366 -118 OFFCURVE",
"394 -101 OFFCURVE",
"412 -68 CURVE SMOOTH",
"621 310 LINE SMOOTH",
"639 343 OFFCURVE",
"639 377 OFFCURVE",
"621 410 CURVE SMOOTH",
"412 788 LINE SMOOTH",
"394 821 OFFCURVE",
"366 838 OFFCURVE",
"328 838 CURVE SMOOTH",
"287 838 LINE SMOOTH"
);
}
);
vertWidth = 1000;
width = 834;
}
);
note = uni300B;
unicode = 300B;
},
{
glyphname = tortoiseshellbracketleft;
lastChange = "2017-12-21 08:38:26 +0000";
layers = (
{
layerId = "A69F2AA0-AD0D-4CE1-B2F1-3CF3C38B68E2";
paths = (
{
closed = 1;
nodes = (
"590 -115 OFFCURVE",
"616 -95 OFFCURVE",
"616 -66 CURVE SMOOTH",
"616 -62 LINE SMOOTH",
"616 -29 OFFCURVE",
"594 1 OFFCURVE",
"562 10 CURVE SMOOTH",
"355 66 LINE",
"349 67 OFFCURVE",
"346 71 OFFCURVE",
"346 77 CURVE SMOOTH",
"346 643 LINE SMOOTH",
"346 649 OFFCURVE",
"349 653 OFFCURVE",
"355 654 CURVE",
"562 710 LINE SMOOTH",
"594 719 OFFCURVE",
"616 749 OFFCURVE",
"616 782 CURVE SMOOTH",
"616 786 LINE SMOOTH",
"616 815 OFFCURVE",
"590 835 OFFCURVE",
"562 828 CURVE SMOOTH",
"254 746 LINE SMOOTH",
"222 737 OFFCURVE",
"200 707 OFFCURVE",
"200 674 CURVE SMOOTH",
"200 46 LINE SMOOTH",
"200 13 OFFCURVE",
"222 -17 OFFCURVE",
"254 -26 CURVE SMOOTH",
"562 -108 LINE SMOOTH"
);
}
);
vertWidth = 1000;
width = 646;
}
);
note = uni3014;
unicode = 3014;
},
{
glyphname = tortoiseshellbracketright;
lastChange = "2017-12-21 08:38:44 +0000";
layers = (
{
layerId = "A69F2AA0-AD0D-4CE1-B2F1-3CF3C38B68E2";
paths = (
{
closed = 1;
nodes = (
"424 -17 OFFCURVE",
"446 13 OFFCURVE",
"446 46 CURVE SMOOTH",
"446 674 LINE SMOOTH",
"446 707 OFFCURVE",
"424 737 OFFCURVE",
"392 746 CURVE SMOOTH",
"84 828 LINE SMOOTH",
"56 835 OFFCURVE",
"30 815 OFFCURVE",
"30 786 CURVE SMOOTH",
"30 782 LINE SMOOTH",
"30 749 OFFCURVE",
"52 719 OFFCURVE",
"84 710 CURVE SMOOTH",
"291 654 LINE",
"297 653 OFFCURVE",
"300 649 OFFCURVE",
"300 643 CURVE SMOOTH",
"300 77 LINE SMOOTH",
"300 71 OFFCURVE",
"297 67 OFFCURVE",
"291 66 CURVE",
"84 10 LINE SMOOTH",
"52 1 OFFCURVE",
"30 -29 OFFCURVE",
"30 -62 CURVE SMOOTH",
"30 -66 LINE SMOOTH",
"30 -95 OFFCURVE",
"56 -115 OFFCURVE",
"84 -108 CURVE SMOOTH",
"392 -26 LINE SMOOTH"
);
}
);
vertWidth = 1000;
width = 646;
}
);
note = uni3015;
unicode = 3015;
},
{
glyphname = whitecornerbracketleft;
lastChange = "2017-12-21 08:38:26 +0000";
layers = (
{
layerId = "A69F2AA0-AD0D-4CE1-B2F1-3CF3C38B68E2";
paths = (
{
closed = 1;
nodes = (
"287 739 OFFCURVE",
"290 742 OFFCURVE",
"296 742 CURVE SMOOTH",
"585 742 LINE SMOOTH",
"591 742 OFFCURVE",
"594 739 OFFCURVE",
"594 733 CURVE SMOOTH",
"594 672 LINE SMOOTH",
"594 666 OFFCURVE",
"591 663 OFFCURVE",
"585 663 CURVE SMOOTH",
"422 663 LINE SMOOTH",
"391 663 OFFCURVE",
"365 638 OFFCURVE",
"365 607 CURVE SMOOTH",
"365 110 LINE SMOOTH",
"365 105 OFFCURVE",
"362 102 OFFCURVE",
"357 102 CURVE SMOOTH",
"296 102 LINE SMOOTH",
"290 102 OFFCURVE",
"287 105 OFFCURVE",
"287 110 CURVE SMOOTH",
"287 733 LINE SMOOTH"
);
},
{
closed = 1;
nodes = (
"395 15 LINE SMOOTH",
"426 15 OFFCURVE",
"452 41 OFFCURVE",
"452 72 CURVE SMOOTH",
"452 568 LINE SMOOTH",
"452 574 OFFCURVE",
"455 577 OFFCURVE",
"461 577 CURVE SMOOTH",
"624 577 LINE SMOOTH",
"655 577 OFFCURVE",
"680 602 OFFCURVE",
"680 633 CURVE SMOOTH",
"680 772 LINE SMOOTH",
"680 803 OFFCURVE",
"655 828 OFFCURVE",
"624 828 CURVE SMOOTH",
"257 828 LINE SMOOTH",
"226 828 OFFCURVE",
"200 803 OFFCURVE",
"200 772 CURVE SMOOTH",
"200 72 LINE SMOOTH",
"200 41 OFFCURVE",
"226 15 OFFCURVE",
"257 15 CURVE SMOOTH",
"287 15 LINE"
);
}
);
vertWidth = 1000;
width = 710;
}
);
note = uni300E;
unicode = 300E;
},
{
glyphname = whitecornerbracketright;
lastChange = "2017-12-21 08:38:44 +0000";
layers = (
{
layerId = "A69F2AA0-AD0D-4CE1-B2F1-3CF3C38B68E2";
paths = (
{
closed = 1;
nodes = (
"116 54 OFFCURVE",
"119 57 OFFCURVE",
"125 57 CURVE SMOOTH",
"288 57 LINE SMOOTH",
"319 57 OFFCURVE",
"345 82 OFFCURVE",
"345 113 CURVE SMOOTH",
"345 610 LINE SMOOTH",
"345 615 OFFCURVE",
"348 618 OFFCURVE",
"353 618 CURVE SMOOTH",
"414 618 LINE SMOOTH",
"420 618 OFFCURVE",
"423 615 OFFCURVE",
"423 610 CURVE SMOOTH",
"423 -13 LINE SMOOTH",
"423 -19 OFFCURVE",
"420 -22 OFFCURVE",
"414 -22 CURVE SMOOTH",
"125 -22 LINE SMOOTH",
"119 -22 OFFCURVE",
"116 -19 OFFCURVE",
"116 -13 CURVE SMOOTH",
"116 48 LINE SMOOTH"
);
},
{
closed = 1;
nodes = (
"484 -108 OFFCURVE",
"510 -83 OFFCURVE",
"510 -52 CURVE SMOOTH",
"510 648 LINE SMOOTH",
"510 679 OFFCURVE",
"484 705 OFFCURVE",
"453 705 CURVE SMOOTH",
"423 705 LINE",
"315 705 LINE SMOOTH",
"284 705 OFFCURVE",
"258 679 OFFCURVE",
"258 648 CURVE SMOOTH",
"258 152 LINE SMOOTH",
"258 146 OFFCURVE",
"255 143 OFFCURVE",
"249 143 CURVE SMOOTH",
"86 143 LINE SMOOTH",
"55 143 OFFCURVE",
"30 118 OFFCURVE",
"30 87 CURVE SMOOTH",
"30 -52 LINE SMOOTH",
"30 -83 OFFCURVE",
"55 -108 OFFCURVE",
"86 -108 CURVE SMOOTH",
"453 -108 LINE SMOOTH"
);
}
);
vertWidth = 1000;
width = 710;
}
);
note = uni300F;
unicode = 300F;
},
{
glyphname = whitelenticularbracketleft;
lastChange = "2017-12-21 08:38:26 +0000";
layers = (
{
layerId = "A69F2AA0-AD0D-4CE1-B2F1-3CF3C38B68E2";
paths = (
{
closed = 1;
nodes = (
"287 748 OFFCURVE",
"290 751 OFFCURVE",
"296 751 CURVE SMOOTH",
"443 751 LINE SMOOTH",
"448 751 OFFCURVE",
"450 748 OFFCURVE",
"447 743 CURVE",
"382 624 OFFCURVE",
"349 496 OFFCURVE",
"349 360 CURVE SMOOTH",
"349 224 OFFCURVE",
"382 96 OFFCURVE",
"447 -23 CURVE",
"450 -28 OFFCURVE",
"448 -31 OFFCURVE",
"443 -31 CURVE SMOOTH",
"296 -31 LINE SMOOTH",
"290 -31 OFFCURVE",
"287 -28 OFFCURVE",
"287 -22 CURVE SMOOTH",
"287 742 LINE SMOOTH"
);
},
{
closed = 1;
nodes = (
"580 -118 OFFCURVE",
"593 -90 OFFCURVE",
"578 -73 CURVE",
"483 53 OFFCURVE",
"435 197 OFFCURVE",
"435 360 CURVE SMOOTH",
"435 523 OFFCURVE",
"483 667 OFFCURVE",
"578 793 CURVE",
"593 810 OFFCURVE",
"580 838 OFFCURVE",
"559 838 CURVE SMOOTH",
"257 838 LINE SMOOTH",
"226 838 OFFCURVE",
"200 812 OFFCURVE",
"200 781 CURVE SMOOTH",
"200 -61 LINE SMOOTH",
"200 -92 OFFCURVE",
"226 -118 OFFCURVE",
"257 -118 CURVE SMOOTH",
"559 -118 LINE SMOOTH"
);
}
);
vertWidth = 1000;
width = 614;
}
);
note = uni3016;
unicode = 3016;
},
{
glyphname = whitelenticularbracketright;
lastChange = "2017-12-21 08:38:44 +0000";
layers = (
{
layerId = "A69F2AA0-AD0D-4CE1-B2F1-3CF3C38B68E2";
paths = (
{
closed = 1;
nodes = (
"233 95 OFFCURVE",
"265 223 OFFCURVE",
"265 360 CURVE SMOOTH",
"265 497 OFFCURVE",
"233 625 OFFCURVE",
"168 743 CURVE",
"165 748 OFFCURVE",
"166 751 OFFCURVE",
"171 751 CURVE SMOOTH",
"319 751 LINE SMOOTH",
"324 751 OFFCURVE",
"327 748 OFFCURVE",
"327 742 CURVE SMOOTH",
"327 -22 LINE SMOOTH",
"327 -28 OFFCURVE",
"324 -31 OFFCURVE",
"319 -31 CURVE SMOOTH",
"171 -31 LINE SMOOTH",
"166 -31 OFFCURVE",
"165 -28 OFFCURVE",
"168 -23 CURVE"
);
},
{
closed = 1;
nodes = (
"388 -118 OFFCURVE",
"414 -92 OFFCURVE",
"414 -61 CURVE SMOOTH",
"414 781 LINE SMOOTH",
"414 812 OFFCURVE",
"388 838 OFFCURVE",
"357 838 CURVE SMOOTH",
"55 838 LINE SMOOTH",
"34 838 OFFCURVE",
"21 810 OFFCURVE",
"36 793 CURVE",
"131 667 OFFCURVE",
"179 523 OFFCURVE",
"179 360 CURVE SMOOTH",
"179 197 OFFCURVE",
"131 53 OFFCURVE",
"36 -73 CURVE",
"21 -90 OFFCURVE",
"34 -118 OFFCURVE",
"55 -118 CURVE SMOOTH",
"357 -118 LINE SMOOTH"
);
}
);
vertWidth = 1000;
width = 614;
}
);
note = uni3017;
unicode = 3017;
},
{
glyphname = bracketleft.full;
lastChange = "2017-12-21 08:38:26 +0000";
layers = (
{
layerId = "A69F2AA0-AD0D-4CE1-B2F1-3CF3C38B68E2";
paths = (
{
closed = 1;
nodes = (
"591 -118 OFFCURVE",
"616 -92 OFFCURVE",
"616 -61 CURVE SMOOTH",
"616 -30 OFFCURVE",
"591 -4 OFFCURVE",
"560 -4 CURVE SMOOTH",
"355 -4 LINE SMOOTH",
"349 -4 OFFCURVE",
"346 -1 OFFCURVE",
"346 4 CURVE SMOOTH",
"346 716 LINE SMOOTH",
"346 721 OFFCURVE",
"349 724 OFFCURVE",
"355 724 CURVE SMOOTH",
"560 724 LINE SMOOTH",
"591 724 OFFCURVE",
"616 750 OFFCURVE",
"616 781 CURVE SMOOTH",
"616 812 OFFCURVE",
"591 838 OFFCURVE",
"560 838 CURVE SMOOTH",
"256 838 LINE SMOOTH",
"225 838 OFFCURVE",
"200 812 OFFCURVE",
"200 781 CURVE SMOOTH",
"200 -61 LINE SMOOTH",
"200 -92 OFFCURVE",
"225 -118 OFFCURVE",
"256 -118 CURVE SMOOTH",
"560 -118 LINE SMOOTH"
);
}
);
vertWidth = 1000;
width = 646;
}
);
note = uniFF3B;
unicode = FF3B;
},
{
glyphname = bracketright.full;
lastChange = "2017-12-21 08:38:44 +0000";
layers = (
{
layerId = "A69F2AA0-AD0D-4CE1-B2F1-3CF3C38B68E2";
paths = (
{
closed = 1;
nodes = (
"55 -4 OFFCURVE",
"30 -30 OFFCURVE",
"30 -61 CURVE SMOOTH",
"30 -92 OFFCURVE",
"55 -118 OFFCURVE",
"86 -118 CURVE SMOOTH",
"390 -118 LINE SMOOTH",
"421 -118 OFFCURVE",
"446 -92 OFFCURVE",
"446 -61 CURVE SMOOTH",
"446 781 LINE SMOOTH",
"446 812 OFFCURVE",
"421 838 OFFCURVE",
"390 838 CURVE SMOOTH",
"86 838 LINE SMOOTH",
"55 838 OFFCURVE",
"30 812 OFFCURVE",
"30 781 CURVE SMOOTH",
"30 750 OFFCURVE",
"55 724 OFFCURVE",
"86 724 CURVE SMOOTH",
"291 724 LINE SMOOTH",
"297 724 OFFCURVE",
"300 721 OFFCURVE",
"300 716 CURVE SMOOTH",
"300 4 LINE SMOOTH",
"300 -1 OFFCURVE",
"297 -4 OFFCURVE",
"291 -4 CURVE SMOOTH",
"86 -4 LINE SMOOTH"
);
}
);
vertWidth = 1000;
width = 646;
}
);
note = uniFF3D;
unicode = FF3D;
},
{
glyphname = parenleft.full;
lastChange = "2017-12-21 08:38:26 +0000";
layers = (
{
layerId = "A69F2AA0-AD0D-4CE1-B2F1-3CF3C38B68E2";
paths = (
{
closed = 1;
nodes = (
"531 -118 OFFCURVE",
"542 -92 OFFCURVE",
"527 -77 CURVE",
"412 48 OFFCURVE",
"355 194 OFFCURVE",
"355 360 CURVE SMOOTH",
"355 517 OFFCURVE",
"413 662 OFFCURVE",
"528 795 CURVE",
"543 811 OFFCURVE",
"531 838 OFFCURVE",
"510 838 CURVE SMOOTH",
"483 838 LINE SMOOTH",
"443 838 OFFCURVE",
"410 825 OFFCURVE",
"385 798 CURVE SMOOTH",
"270 678 OFFCURVE",
"200 520 OFFCURVE",
"200 360 CURVE SMOOTH",
"200 196 OFFCURVE",
"266 40 OFFCURVE",
"385 -79 CURVE SMOOTH",
"411 -105 OFFCURVE",
"444 -118 OFFCURVE",
"483 -118 CURVE SMOOTH",
"510 -118 LINE SMOOTH"
);
}
);
vertWidth = 1000;
width = 565;
}
);
note = uniFF08;
unicode = FF08;
},
{
glyphname = parenright.full;
lastChange = "2017-12-21 08:38:44 +0000";
layers = (
{
layerId = "A69F2AA0-AD0D-4CE1-B2F1-3CF3C38B68E2";
paths = (
{
closed = 1;
nodes = (
"210 194 OFFCURVE",
"153 48 OFFCURVE",
"38 -77 CURVE",
"23 -92 OFFCURVE",
"34 -118 OFFCURVE",
"55 -118 CURVE SMOOTH",
"82 -118 LINE SMOOTH",
"121 -118 OFFCURVE",
"154 -105 OFFCURVE",
"180 -79 CURVE SMOOTH",
"299 40 OFFCURVE",
"365 196 OFFCURVE",
"365 360 CURVE SMOOTH",
"365 520 OFFCURVE",
"295 678 OFFCURVE",
"180 798 CURVE SMOOTH",
"155 825 OFFCURVE",
"122 838 OFFCURVE",
"82 838 CURVE SMOOTH",
"55 838 LINE SMOOTH",
"34 838 OFFCURVE",
"22 811 OFFCURVE",
"37 795 CURVE",
"152 662 OFFCURVE",
"210 517 OFFCURVE",
"210 360 CURVE SMOOTH"
);
}
